HIERARCHY
ROOT Hips
{
	OFFSET -0.001795 -0.223333 0.028219
	CHANNELS 6 Xposition Yposition Zposition Zrotation Yrotation Xrotation 
	JOINT LeftUpLeg
	{
		OFFSET 0.069520 -0.091406 -0.006815
		CHANNELS 3 Zrotation Yrotation Xrotation
		JOINT LeftLeg
		{
			OFFSET 0.034277 -0.375199 -0.004496
			CHANNELS 3 Zrotation Yrotation Xrotation
			JOINT LeftFoot
			{
				OFFSET -0.013596 -0.397961 -0.043693
				CHANNELS 3 Zrotation Yrotation Xrotation
				JOINT LeftToe
				{
					OFFSET 0.026358 -0.055791 0.119288
					CHANNELS 3 Zrotation Yrotation Xrotation
					End Site
					{
						OFFSET 0.000000 0.000000 0.000000
					}
				}
			}
		}
	}
	JOINT RightUpLeg
	{
		OFFSET -0.067670 -0.090522 -0.004320
		CHANNELS 3 Zrotation Yrotation Xrotation
		JOINT RightLeg
		{
			OFFSET -0.038290 -0.382569 -0.008850
			CHANNELS 3 Zrotation Yrotation Xrotation
			JOINT RightFoot
			{
				OFFSET 0.015774 -0.398415 -0.042312
				CHANNELS 3 Zrotation Yrotation Xrotation
				JOINT RightToe
				{
					OFFSET -0.025372 -0.048144 0.123348
					CHANNELS 3 Zrotation Yrotation Xrotation
					End Site
					{
						OFFSET 0.000000 0.000000 0.000000
					}
				}
			}
		}
	}
	JOINT Spine
	{
		OFFSET -0.002533 0.108963 -0.026696
		CHANNELS 3 Zrotation Yrotation Xrotation
		JOINT Spine1
		{
			OFFSET 0.005487 0.135180 0.001092
			CHANNELS 3 Zrotation Yrotation Xrotation
			JOINT Spine2
			{
				OFFSET 0.001457 0.052922 0.025425
				CHANNELS 3 Zrotation Yrotation Xrotation
				JOINT Neck
				{
					OFFSET -0.002778 0.213870 -0.042857
					CHANNELS 3 Zrotation Yrotation Xrotation
					JOINT Head
					{
						OFFSET 0.005152 0.064970 0.051349
						CHANNELS 3 Zrotation Yrotation Xrotation
						End Site
						{
							OFFSET 0.000000 0.000000 0.000000
						}
					}
				}
				JOINT LeftShoulder
				{
					OFFSET 0.078845 0.121749 -0.034090
					CHANNELS 3 Zrotation Yrotation Xrotation
					JOINT LeftArm
					{
						OFFSET 0.090977 0.030469 -0.008868
						CHANNELS 3 Zrotation Yrotation Xrotation
						JOINT LeftForeArm
						{
							OFFSET 0.259612 -0.012772 -0.027456
							CHANNELS 3 Zrotation Yrotation Xrotation
							JOINT LeftHand
							{
								OFFSET 0.249234 0.008986 -0.001171
								CHANNELS 3 Zrotation Yrotation Xrotation
								End Site
								{
									OFFSET 0.000000 0.000000 0.000000
								}
							}
						}
					}
				}
				JOINT RightShoulder
				{
					OFFSET -0.081759 0.118833 -0.038615
					CHANNELS 3 Zrotation Yrotation Xrotation
					JOINT RightArm
					{
						OFFSET -0.096012 0.032551 -0.009143
						CHANNELS 3 Zrotation Yrotation Xrotation
						JOINT RightForeArm
						{
							OFFSET -0.253742 -0.013329 -0.021401
							CHANNELS 3 Zrotation Yrotation Xrotation
							JOINT RightHand
							{
								OFFSET -0.255298 0.007772 -0.005559
								CHANNELS 3 Zrotation Yrotation Xrotation
								End Site
								{
									OFFSET 0.000000 0.000000 0.000000
								}
							}
						}
					}
				}
			}
		}
	}
}
MOTION
Frames: 10
Frame Time: 0.05000000
10.673509 0.855859 16.479540 4.265087 16.226725 19.990261 -5.375710 -2.120822 -23.356882 -6.673400 0.283223 3.836762 9.631826 13.408390 -21.269843 0.000000 0.000000 0.000000 -12.290131 -0.091048 -41.516846 2.884272 -7.696860 74.615939 -1.740077 -1.462225 -7.525913 0.000000 0.000000 0.000000 -7.903275 0.070028 -27.568832 2.241923 0.098394 -22.416711 -6.915222 -12.471468 41.716499 0.071590 1.754601 -39.456873 0.000000 0.000000 0.000000 21.066135 16.310876 -2.732292 -94.172802 4.318485 -11.784488 -23.317436 -19.810134 5.354870 0.000000 0.000000 0.000000 -27.469940 -6.504071 1.012038 95.303907 7.704779 -4.037657 24.675071 27.244085 7.339151 0.000000 0.000000 0.000000 
11.087568 0.857604 17.338774 2.833632 17.577047 20.020756 -5.119468 -1.296216 -17.991339 -5.459593 0.145680 1.148995 9.741838 11.396454 -23.749241 0.000000 0.000000 0.000000 -10.678199 -0.557368 -50.465359 4.586933 -8.273725 70.696718 -3.102019 -5.972195 -8.000186 0.000000 0.000000 0.000000 -6.560140 0.235387 -27.681280 2.270130 0.092241 -22.405098 -7.947075 -14.881287 42.149713 0.577872 1.221939 -38.969706 0.000000 0.000000 0.000000 20.871821 15.501843 -3.101360 -94.081451 0.854890 -6.551993 -21.120142 -24.222295 6.087759 0.000000 0.000000 0.000000 -26.793368 -6.916243 1.406030 94.077807 6.648212 -7.037251 26.052449 26.651364 7.552157 0.000000 0.000000 0.000000 
11.478935 0.855693 18.198774 2.125313 19.683576 19.359088 -5.004164 -0.580868 -12.394704 -5.290515 0.043781 -2.009657 9.756208 9.661638 -24.643132 0.000000 0.000000 0.000000 -10.565224 -1.421406 -55.343873 7.527382 -9.021524 61.620786 -4.496818 -10.939984 -8.776295 0.000000 0.000000 0.000000 -5.984246 0.321407 -26.371890 2.255005 0.106049 -22.588194 -8.835674 -17.148072 41.936664 1.404982 0.674167 -38.865726 0.000000 0.000000 0.000000 21.792790 14.609109 -3.174539 -94.071603 -2.560835 -1.884714 -19.992562 -27.926327 6.764508 0.000000 0.000000 0.000000 -26.581497 -7.077022 1.726796 93.058147 5.275016 -9.684638 27.103715 24.846205 7.210866 0.000000 0.000000 0.000000 
11.868701 0.850369 19.080252 2.404493 21.975311 17.047756 -3.691075 0.059746 -4.430395 -7.008265 -0.150413 -5.943700 9.673796 7.976899 -25.914137 0.000000 0.000000 0.000000 -10.425184 -1.854257 -54.947797 8.692148 -7.340625 48.939829 -4.810824 -12.493786 -10.709917 0.000000 0.000000 0.000000 -6.407164 0.317012 -22.723148 2.506112 0.063013 -22.868543 -9.463170 -19.367395 42.082680 1.399545 0.465090 -38.638167 0.000000 0.000000 0.000000 21.528252 13.624551 -3.310742 -92.977442 -6.157379 2.277482 -17.842934 -31.187071 6.982460 0.000000 0.000000 0.000000 -26.095309 -7.089347 1.898912 93.118883 5.091197 -11.215881 26.168774 23.686292 6.601078 0.000000 0.000000 0.000000 
12.244238 0.843709 20.023092 2.325924 23.266941 15.326794 -1.576629 0.170252 2.548444 -9.050483 -0.370595 -8.333113 9.381495 6.819129 -26.548166 0.000000 0.000000 0.000000 -10.249666 -1.835368 -52.894890 9.671628 -5.066149 33.719851 -4.670751 -12.819576 -12.231913 0.000000 0.000000 0.000000 -5.931059 0.355247 -20.324472 2.159788 0.156659 -22.987586 -9.511685 -19.775980 42.013593 0.790728 0.715059 -38.836656 0.000000 0.000000 0.000000 21.804270 12.725374 -3.133712 -92.572647 -9.367291 5.188932 -16.077918 -33.575652 7.008480 0.000000 0.000000 0.000000 -25.523352 -7.660026 1.720386 93.297230 4.415360 -12.029315 25.068446 22.307088 5.918003 0.000000 0.000000 0.000000 
12.598570 0.835762 21.033909 2.760515 23.851580 13.885823 -1.633965 0.384980 8.413625 -8.765417 -0.331955 -8.900057 9.027921 5.374355 -26.738888 0.000000 0.000000 0.000000 -10.850966 -1.882476 -49.666267 10.036954 -3.047174 18.652766 -4.416729 -12.391283 -11.183340 0.000000 0.000000 0.000000 -6.042430 0.329837 -18.426061 1.996506 0.203735 -22.823549 -9.506951 -19.575411 41.887910 0.528845 0.839308 -38.631952 0.000000 0.000000 0.000000 21.469088 11.998224 -2.971258 -92.100357 -11.398349 6.522390 -14.979628 -35.142425 7.061212 0.000000 0.000000 0.000000 -24.777542 -7.899619 1.483779 94.044323 3.423296 -12.879117 23.453023 21.806170 5.428132 0.000000 0.000000 0.000000 
12.914010 0.826815 22.136791 2.527682 25.384681 15.063559 -0.074068 -0.041302 9.945671 -8.303230 -0.166645 -6.469616 8.744880 2.684864 -28.491769 0.000000 0.000000 0.000000 -10.797216 -2.183466 -51.310714 8.875954 -2.187869 13.627284 -4.277943 -12.142047 -7.954497 0.000000 0.000000 0.000000 -6.096273 0.323001 -19.980544 2.142584 0.172283 -22.605045 -9.850572 -20.493398 41.946822 1.412117 0.462395 -38.618772 0.000000 0.000000 0.000000 20.967955 11.574648 -2.961976 -92.283351 -12.260757 7.507036 -14.592503 -36.163753 7.198423 0.000000 0.000000 0.000000 -24.154271 -8.236282 1.367712 94.470251 1.978785 -14.175093 21.649951 20.071877 4.622766 0.000000 0.000000 0.000000 
13.200397 0.820919 23.362196 2.025277 27.093975 17.031752 1.858479 -0.687046 9.641538 -7.373845 0.062981 -2.171608 8.192942 1.272859 -27.386796 0.000000 0.000000 0.000000 -10.670732 -2.516000 -53.590036 8.945148 -2.628849 17.232632 -4.561586 -13.153583 -5.731189 0.000000 0.000000 0.000000 -5.962586 0.263610 -23.473539 2.195619 0.161121 -22.186627 -10.436618 -21.989051 42.381554 2.371752 -0.070630 -38.162426 0.000000 0.000000 0.000000 20.508619 11.968244 -3.210654 -92.507517 -10.521758 6.598084 -15.529308 -37.492092 7.888953 0.000000 0.000000 0.000000 -24.200220 -8.887431 1.454010 94.953727 0.880888 -15.576914 21.398424 19.335024 4.426262 0.000000 0.000000 0.000000 
13.463026 0.821241 24.699022 1.717359 27.064623 18.455571 4.186427 -1.324680 8.260007 -7.162913 0.342250 4.550719 6.931753 0.179157 -24.090470 0.000000 0.000000 0.000000 -9.221901 -1.785270 -54.344398 9.559515 -3.531381 22.615586 -4.403314 -12.528894 -3.273934 0.000000 0.000000 0.000000 -5.507650 0.206800 -26.642756 2.167459 0.161102 -21.805514 -10.187283 -21.390739 42.608087 2.167660 0.061218 -37.948359 0.000000 0.000000 0.000000 19.807562 12.497918 -3.253912 -93.349366 -8.428935 4.324486 -16.912774 -35.515834 7.888802 0.000000 0.000000 0.000000 -23.993930 -8.732780 1.357130 94.395091 0.011146 -15.590178 21.340415 19.414867 4.456234 0.000000 0.000000 0.000000 
13.690783 0.828938 26.074505 1.649873 27.846183 14.718770 6.754644 -1.853834 8.959620 -6.990317 0.529388 16.222406 4.761330 -2.234223 -18.936120 0.000000 0.000000 0.000000 -8.020018 -0.675686 -47.049762 9.370419 -4.101384 25.949236 -3.794201 -10.469586 -6.286540 0.000000 0.000000 0.000000 -6.087898 0.132203 -22.913812 2.615879 0.063200 -21.886226 -9.859027 -21.493223 42.653141 2.206555 0.014735 -37.545522 0.000000 0.000000 0.000000 19.581993 13.318322 -3.355405 -93.607101 -6.061457 1.502002 -19.164317 -33.229177 7.994552 0.000000 0.000000 0.000000 -24.374525 -8.209123 1.364768 94.804809 1.664939 -14.298598 20.191015 19.309972 4.197844 0.000000 0.000000 0.000000 
